<?xml version="1.0" encoding="UTF-8" standalone="no"?>
<!DOCTYPE svg PUBLIC "-//W3C//DTD SVG 1.0//EN" "http://www.w3.org/TR/2001/REC-SVG-20010904/DTD/svg10.dtd">
<!-- Generated by Microsoft Visio 11.0, SVG Export, v1.0 oauth.svg Page-1 -->
<svg xmlns="http://www.w3.org/2000/svg" xmlns:xlink="http://www.w3.org/1999/xlink" xmlns:ev="http://www.w3.org/2001/xml-events"
		xmlns:v="http://schemas.microsoft.com/visio/2003/SVGExtensions/" width="8.26772in" height="11.6929in"
		viewBox="0 0 595.276 841.89" xml:space="preserve" color-interpolation-filters="sRGB" class="st10">
	<v:documentProperties v:langID="1033" v:viewMarkup="false">
		<v:userDefs>
			<v:ud v:nameU="msvSubprocessMaster" v:prompt="" v:val="VT4(Rectangle)"/>
			<v:ud v:nameU="msvNoAutoConnect" v:val="VT0(1):26"/>
		</v:userDefs>
	</v:documentProperties>

	<style type="text/css">
	<![CDATA[
		.st1 {visibility:visible}
		.st2 {fill:#cdcdcd;fill-opacity:0.5;stroke:#cdcdcd;stroke-linecap:round;stroke-linejoin:round;stroke-opacity:0.5;stroke-width:0.25}
		.st3 {fill:url(#grad30-6);stroke:#404040;stroke-linecap:round;stroke-linejoin:round;stroke-width:0.25}
		.st4 {fill:#000000;font-family:Calibri;font-size:1.16666em}
		.st5 {font-size:1em}
		.st6 {fill:none;stroke:none;stroke-linecap:round;stroke-linejoin:round;stroke-width:0.25}
		.st7 {fill:#000000;font-family:Calibri;font-size:1.00001em}
		.st8 {fill:url(#grad30-6);stroke:#bfbfbf;stroke-linecap:round;stroke-linejoin:round;stroke-width:0.25}
		.st9 {fill:#7f7f7f;font-family:Calibri;font-size:1.00001em}
		.st10 {fill:none;fill-rule:evenodd;font-size:12px;overflow:visible;stroke-linecap:square;stroke-miterlimit:3}
	]]>
	</style>

	<defs id="Patterns_And_Gradients">
		<linearGradient id="grad30-6" v:fillPattern="30" v:foreground="#f0f0f0" v:background="#ffffff" x1="0" y1="1" x2="0" y2="0">
			<stop offset="0" style="stop-color:#f0f0f0;stop-opacity:1"/>
			<stop offset="1" style="stop-color:#ffffff;stop-opacity:1"/>
		</linearGradient>
	</defs>
	<g v:mID="0" v:index="1" v:groupContext="foregroundPage">
		<v:userDefs>
			<v:ud v:nameU="msvThemeColors" v:val="VT0(36):26"/>
			<v:ud v:nameU="msvThemeEffects" v:val="VT0(16):26"/>
			<v:ud v:nameU="msvThemeOrder" v:val="VT0(0):26"/>
		</v:userDefs>
		<title>Page-1</title>
		<v:pageProperties v:drawingScale="0.0393701" v:pageScale="0.0393701" v:drawingUnits="24" v:shadowOffsetX="8.50394"
				v:shadowOffsetY="-8.50394"/>
		<g id="shape1-1" v:mID="1" v:groupContext="shape" transform="translate(31.1811,-751.181)">
			<title>Rectangle</title>
			<desc>App</desc>
			<v:userDefs>
				<v:ud v:nameU="visVersion" v:val="VT0(14):26"/>
				<v:ud v:nameU="msvThemeColors" v:val="VT0(36):26"/>
				<v:ud v:nameU="msvThemeEffects" v:val="VT0(16):26"/>
			</v:userDefs>
			<v:textBlock v:margins="rect(4,4,4,4)" v:tabSpace="42.5197"/>
			<v:textRect cx="42.5197" cy="813.543" width="85.04" height="56.6929"/>
			<g id="shadow1-2" v:groupContext="shadow" v:shadowOffsetX="1.44" v:shadowOffsetY="-1.44" v:shadowType="1"
					transform="matrix(1,0,0,1,1.44,1.44)" class="st1">
				<rect x="0" y="785.197" width="85.0394" height="56.6929" class="st2"/>
			</g>
			<rect x="0" y="785.197" width="85.0394" height="56.6929" class="st3"/>
			<text x="31.11" y="817.74" class="st4" v:langID="1033"><v:paragraph v:horizAlign="1"/><v:tabList/>App</text>		</g>
		<g id="shape2-8" v:mID="2" v:groupContext="shape" transform="translate(895.748,578.268) rotate(90) scale(-1,1)">
			<title>45 degree single</title>
			<v:userDefs>
				<v:ud v:nameU="visVersion" v:val="VT0(14):26"/>
				<v:ud v:nameU="msvThemeColors" v:val="VT0(36):26"/>
				<v:ud v:nameU="msvThemeEffects" v:val="VT0(16):26"/>
			</v:userDefs>
			<g id="shadow2-9" v:groupContext="shadow" v:shadowOffsetX="1.44" v:shadowOffsetY="-1.44" v:shadowType="1"
					transform="matrix(1,0,0,1,-1.44,-1.44)" class="st1">
				<path d="M0 822.05 L19.84 802.2 L19.84 815.3 L487.56 815.3 L487.56 828.79 L19.84 828.79 L19.84 841.89 L0 822.05 Z"
						class="st2"/>
			</g>
			<path d="M0 822.05 L19.84 802.2 L19.84 815.3 L487.56 815.3 L487.56 828.79 L19.84 828.79 L19.84 841.89 L0 822.05 Z"
					class="st3"/>
		</g>
		<g id="shape3-13" v:mID="3" v:groupContext="shape" transform="translate(255.118,-751.181)">
			<title>Rectangle.3</title>
			<desc>User Agent</desc>
			<v:userDefs>
				<v:ud v:nameU="visVersion" v:val="VT0(14):26"/>
				<v:ud v:nameU="msvThemeColors" v:val="VT0(36):26"/>
				<v:ud v:nameU="msvThemeEffects" v:val="VT0(16):26"/>
			</v:userDefs>
			<v:textBlock v:margins="rect(4,4,4,4)" v:tabSpace="42.5197"/>
			<v:textRect cx="42.5197" cy="813.543" width="85.04" height="56.6929"/>
			<g id="shadow3-14" v:groupContext="shadow" v:shadowOffsetX="1.44" v:shadowOffsetY="-1.44" v:shadowType="1"
					transform="matrix(1,0,0,1,1.44,1.44)" class="st1">
				<rect x="0" y="785.197" width="85.0394" height="56.6929" class="st2"/>
			</g>
			<rect x="0" y="785.197" width="85.0394" height="56.6929" class="st3"/>
			<text x="10.93" y="817.74" class="st4" v:langID="1033"><v:paragraph v:horizAlign="1"/><v:tabList/>User Agent</text>		</g>
		<g id="shape4-19" v:mID="4" v:groupContext="shape" transform="translate(453.543,-751.181)">
			<title>Rectangle.4</title>
			<desc>Appsco Accounts</desc>
			<v:userDefs>
				<v:ud v:nameU="visVersion" v:val="VT0(14):26"/>
				<v:ud v:nameU="msvThemeColors" v:val="VT0(36):26"/>
				<v:ud v:nameU="msvThemeEffects" v:val="VT0(16):26"/>
			</v:userDefs>
			<v:textBlock v:margins="rect(4,4,4,4)" v:tabSpace="42.5197"/>
			<v:textRect cx="42.5197" cy="813.543" width="85.04" height="56.6929"/>
			<g id="shadow4-20" v:groupContext="shadow" v:shadowOffsetX="1.44" v:shadowOffsetY="-1.44" v:shadowType="1"
					transform="matrix(1,0,0,1,1.44,1.44)" class="st1">
				<rect x="0" y="785.197" width="85.0394" height="56.6929" class="st2"/>
			</g>
			<rect x="0" y="785.197" width="85.0394" height="56.6929" class="st3"/>
			<text x="21.72" y="809.34" class="st4" v:langID="1033"><v:paragraph v:horizAlign="1"/><v:tabList/>Appsco <tspan
						x="16.42" dy="1.2em" class="st5">Accounts</tspan></text>		</g>
		<g id="shape5-26" v:mID="5" v:groupContext="shape" transform="translate(1119.69,578.268) rotate(90) scale(-1,1)">
			<title>45 degree single.5</title>
			<v:userDefs>
				<v:ud v:nameU="visVersion" v:val="VT0(14):26"/>
				<v:ud v:nameU="msvThemeColors" v:val="VT0(36):26"/>
				<v:ud v:nameU="msvThemeEffects" v:val="VT0(16):26"/>
			</v:userDefs>
			<g id="shadow5-27" v:groupContext="shadow" v:shadowOffsetX="1.44" v:shadowOffsetY="-1.44" v:shadowType="1"
					transform="matrix(1,0,0,1,-1.44,-1.44)" class="st1">
				<path d="M0 822.05 L19.84 802.2 L19.84 815.3 L487.56 815.3 L487.56 828.79 L19.84 828.79 L19.84 841.89 L0 822.05 Z"
						class="st2"/>
			</g>
			<path d="M0 822.05 L19.84 802.2 L19.84 815.3 L487.56 815.3 L487.56 828.79 L19.84 828.79 L19.84 841.89 L0 822.05 Z"
					class="st3"/>
		</g>
		<g id="shape6-31" v:mID="6" v:groupContext="shape" transform="translate(1318.11,578.268) rotate(90) scale(-1,1)">
			<title>45 degree single.6</title>
			<v:userDefs>
				<v:ud v:nameU="visVersion" v:val="VT0(14):26"/>
				<v:ud v:nameU="msvThemeColors" v:val="VT0(36):26"/>
				<v:ud v:nameU="msvThemeEffects" v:val="VT0(16):26"/>
			</v:userDefs>
			<g id="shadow6-32" v:groupContext="shadow" v:shadowOffsetX="1.44" v:shadowOffsetY="-1.44" v:shadowType="1"
					transform="matrix(1,0,0,1,-1.44,-1.44)" class="st1">
				<path d="M0 822.05 L19.84 802.2 L19.84 815.3 L487.56 815.3 L487.56 828.79 L19.84 828.79 L19.84 841.89 L0 822.05 Z"
						class="st2"/>
			</g>
			<path d="M0 822.05 L19.84 802.2 L19.84 815.3 L487.56 815.3 L487.56 828.79 L19.84 828.79 L19.84 841.89 L0 822.05 Z"
					class="st3"/>
		</g>
		<g id="shape8-36" v:mID="8" v:groupContext="shape" transform="translate(170.079,-712)">
			<title>Sheet.8</title>
			<desc>GET /protected</desc>
			<v:userDefs>
				<v:ud v:nameU="msvThemeColors" v:val="VT0(36):26"/>
				<v:ud v:nameU="msvThemeEffects" v:val="VT0(16):26"/>
			</v:userDefs>
			<v:textBlock v:margins="rect(4,4,4,4)" v:tabSpace="42.5197"/>
			<v:textRect cx="52" cy="833.89" width="104" height="16"/>
			<rect x="0" y="825.89" width="104" height="16" class="st6"/>
			<text x="25.2" y="837.49" class="st7" v:langID="1033"><v:paragraph v:horizAlign="2"/><v:tabList/>GET /protected</text>		</g>
		<g id="shape9-39" v:mID="9" v:groupContext="shape" transform="translate(95.4016,-677.984)">
			<title>Sheet.9</title>
			<desc>Location: authorization request</desc>
			<v:userDefs>
				<v:ud v:nameU="msvThemeColors" v:val="VT0(36):26"/>
				<v:ud v:nameU="msvThemeEffects" v:val="VT0(16):26"/>
			</v:userDefs>
			<v:textBlock v:margins="rect(4,4,4,4)" v:tabSpace="42.5197"/>
			<v:textRect cx="89.7795" cy="833.89" width="179.56" height="16"/>
			<rect x="0" y="825.89" width="179.559" height="16" class="st6"/>
			<text x="4" y="837.49" class="st7" v:langID="1033"><v:paragraph/><v:tabList/>Location: authorization request</text>		</g>
		<g id="shape7-42" v:mID="7" v:groupContext="shape" transform="translate(80.4472,-697.323)">
			<title>45 degree double</title>
			<v:userDefs>
				<v:ud v:nameU="visVersion" v:val="VT0(14):26"/>
				<v:ud v:nameU="msvThemeColors" v:val="VT0(36):26"/>
				<v:ud v:nameU="msvThemeEffects" v:val="VT0(16):26"/>
			</v:userDefs>
			<g id="shadow7-43" v:groupContext="shadow" v:shadowOffsetX="1.44" v:shadowOffsetY="-1.44" v:shadowType="1"
					transform="matrix(1,0,0,1,1.44,1.44)" class="st1">
				<path d="M0 836.22 L5.67 830.55 L5.67 834.29 L204.77 834.29 L204.77 830.55 L210.44 836.22 L204.77 841.89 L204.77
							 838.15 L5.67 838.15 L5.67 841.89 L0 836.22 Z" class="st2"/>
			</g>
			<path d="M0 836.22 L5.67 830.55 L5.67 834.29 L204.77 834.29 L204.77 830.55 L210.44 836.22 L204.77 841.89 L204.77 838.15
						 L5.67 838.15 L5.67 841.89 L0 836.22 Z" class="st3"/>
		</g>
		<g id="shape10-47" v:mID="10" v:groupContext="shape" transform="translate(304.384,-647.717)">
			<title>45 degree double.10</title>
			<v:userDefs>
				<v:ud v:nameU="visVersion" v:val="VT0(14):26"/>
				<v:ud v:nameU="msvThemeColors" v:val="VT0(36):26"/>
				<v:ud v:nameU="msvThemeEffects" v:val="VT0(16):26"/>
			</v:userDefs>
			<g id="shadow10-48" v:groupContext="shadow" v:shadowOffsetX="1.44" v:shadowOffsetY="-1.44" v:shadowType="1"
					transform="matrix(1,0,0,1,1.44,1.44)" class="st1">
				<path d="M0 836.22 L5.67 830.55 L5.67 834.29 L179.26 834.29 L179.26 830.55 L184.93 836.22 L179.26 841.89 L179.26
							 838.15 L5.67 838.15 L5.67 841.89 L0 836.22 Z" class="st2"/>
			</g>
			<path d="M0 836.22 L5.67 830.55 L5.67 834.29 L179.26 834.29 L179.26 830.55 L184.93 836.22 L179.26 841.89 L179.26 838.15
						 L5.67 838.15 L5.67 841.89 L0 836.22 Z" class="st3"/>
		</g>
		<g id="shape11-52" v:mID="11" v:groupContext="shape" transform="translate(310.835,-660.063)">
			<title>Sheet.11</title>
			<desc>GET authorization</desc>
			<v:userDefs>
				<v:ud v:nameU="msvThemeColors" v:val="VT0(36):26"/>
				<v:ud v:nameU="msvThemeEffects" v:val="VT0(16):26"/>
			</v:userDefs>
			<v:textBlock v:margins="rect(4,4,4,4)" v:tabSpace="42.5197"/>
			<v:textRect cx="52" cy="833.89" width="104" height="16"/>
			<rect x="0" y="825.89" width="104" height="16" class="st6"/>
			<text x="4" y="837.49" class="st7" v:langID="1033"><v:paragraph/><v:tabList/>GET authorization</text>		</g>
		<g id="shape12-55" v:mID="12" v:groupContext="shape" transform="translate(311.811,-630.709)">
			<title>Sheet.12</title>
			<desc>Location: authorized granted</desc>
			<v:userDefs>
				<v:ud v:nameU="msvThemeColors" v:val="VT0(36):26"/>
				<v:ud v:nameU="msvThemeEffects" v:val="VT0(16):26"/>
			</v:userDefs>
			<v:textBlock v:margins="rect(4,4,4,4)" v:tabSpace="42.5197"/>
			<v:textRect cx="85.0394" cy="833.89" width="170.08" height="16"/>
			<rect x="0" y="825.89" width="170.079" height="16" class="st6"/>
			<text x="25" y="837.49" class="st7" v:langID="1033"><v:paragraph v:horizAlign="2"/><v:tabList/>Location: authorized granted</text>		</g>
		<g id="shape13-58" v:mID="13" v:groupContext="shape" transform="translate(141.732,-613.291)">
			<title>Sheet.13</title>
			<desc>GET authorization url</desc>
			<v:userDefs>
				<v:ud v:nameU="msvThemeColors" v:val="VT0(36):26"/>
				<v:ud v:nameU="msvThemeEffects" v:val="VT0(16):26"/>
			</v:userDefs>
			<v:textBlock v:margins="rect(4,4,4,4)" v:tabSpace="42.5197"/>
			<v:textRect cx="66.8819" cy="833.89" width="133.77" height="16"/>
			<rect x="0" y="825.89" width="133.764" height="16" class="st6"/>
			<text x="26.28" y="837.49" class="st7" v:langID="1033"><v:paragraph v:horizAlign="2"/><v:tabList/>GET authorization url</text>		</g>
		<g id="shape15-61" v:mID="15" v:groupContext="shape" transform="translate(90.1864,1072.4) rotate(-0.255988) scale(1,-1)">
			<title>45 degree single.15</title>
			<v:userDefs>
				<v:ud v:nameU="visVersion" v:val="VT0(14):26"/>
				<v:ud v:nameU="msvThemeColors" v:val="VT0(36):26"/>
				<v:ud v:nameU="msvThemeEffects" v:val="VT0(16):26"/>
			</v:userDefs>
			<g id="shadow15-62" v:groupContext="shadow" v:shadowOffsetX="1.44" v:shadowOffsetY="-1.44" v:shadowType="1"
					transform="matrix(1,4.40881E-019,-5.51418E-019,1,1.43355,-1.44642)" class="st1">
				<path d="M0 834.8 L7.09 827.72 L7.09 832.39 L204.44 832.39 L204.44 837.21 L7.09 837.21 L7.09 841.89 L0 834.8 Z"
						class="st2"/>
			</g>
			<path d="M0 834.8 L7.09 827.72 L7.09 832.39 L204.44 832.39 L204.44 837.21 L7.09 837.21 L7.09 841.89 L0 834.8 Z"
					class="st3"/>
		</g>
		<g id="shape14-66" v:mID="14" v:groupContext="shape" transform="translate(87.1937,-557.008)">
			<title>45 degree double.14</title>
			<v:userDefs>
				<v:ud v:nameU="visVersion" v:val="VT0(14):26"/>
				<v:ud v:nameU="msvThemeColors" v:val="VT0(36):26"/>
				<v:ud v:nameU="msvThemeEffects" v:val="VT0(16):26"/>
			</v:userDefs>
			<g id="shadow14-67" v:groupContext="shadow" v:shadowOffsetX="1.44" v:shadowOffsetY="-1.44" v:shadowType="1"
					transform="matrix(1,0,0,1,1.44,1.44)" class="st1">
				<path d="M0 836.22 L5.67 830.55 L5.67 834.29 L396.45 834.29 L396.45 830.55 L402.12 836.22 L396.45 841.89 L396.45
							 838.15 L5.67 838.15 L5.67 841.89 L0 836.22 Z" class="st2"/>
			</g>
			<path d="M0 836.22 L5.67 830.55 L5.67 834.29 L396.45 834.29 L396.45 830.55 L402.12 836.22 L396.45 841.89 L396.45 838.15
						 L5.67 838.15 L5.67 841.89 L0 836.22 Z" class="st3"/>
		</g>
		<g id="shape16-71" v:mID="16" v:groupContext="shape" transform="translate(58.1102,-439.37)">
			<title>Rectangle.16</title>
			<v:userDefs>
				<v:ud v:nameU="visVersion" v:val="VT0(14):26"/>
				<v:ud v:nameU="msvThemeColors" v:val="VT0(36):26"/>
				<v:ud v:nameU="msvThemeEffects" v:val="VT0(16):26"/>
			</v:userDefs>
			<g id="shadow16-72" v:groupContext="shadow" v:shadowOffsetX="1.44" v:shadowOffsetY="-1.44" v:shadowType="1"
					transform="matrix(1,0,0,1,1.44,1.44)" class="st1">
				<rect x="0" y="671.811" width="28.3465" height="170.079" class="st2"/>
			</g>
			<rect x="0" y="671.811" width="28.3465" height="170.079" class="st3"/>
		</g>
		<g id="shape17-76" v:mID="17" v:groupContext="shape" transform="translate(99.2126,-567.937)">
			<title>Sheet.17</title>
			<desc>authorization grant</desc>
			<v:userDefs>
				<v:ud v:nameU="msvThemeColors" v:val="VT0(36):26"/>
				<v:ud v:nameU="msvThemeEffects" v:val="VT0(16):26"/>
			</v:userDefs>
			<v:textBlock v:margins="rect(4,4,4,4)" v:tabSpace="42.5197"/>
			<v:textRect cx="67.3228" cy="833.89" width="134.65" height="16"/>
			<rect x="0" y="825.89" width="134.646" height="16" class="st6"/>
			<text x="4" y="837.49" class="st7" v:langID="1033"><v:paragraph/><v:tabList/>authorization grant</text>		</g>
		<g id="shape18-79" v:mID="18" v:groupContext="shape" transform="translate(316.063,-539.591)">
			<title>Sheet.18</title>
			<desc>access token &#38; id token</desc>
			<v:userDefs>
				<v:ud v:nameU="msvThemeColors" v:val="VT0(36):26"/>
				<v:ud v:nameU="msvThemeEffects" v:val="VT0(16):26"/>
			</v:userDefs>
			<v:textBlock v:margins="rect(4,4,4,4)" v:tabSpace="42.5197"/>
			<v:textRect cx="85.0394" cy="833.89" width="170.08" height="16"/>
			<rect x="0" y="825.89" width="170.079" height="16" class="st6"/>
			<text x="50.57" y="837.49" class="st7" v:langID="1033"><v:paragraph v:horizAlign="2"/><v:tabList/>access token &#38; id token</text>		</g>
		<g id="shape19-82" v:mID="19" v:groupContext="shape" transform="translate(87.1937,-495.15)">
			<title>45 degree double.19</title>
			<v:userDefs>
				<v:ud v:nameU="visVersion" v:val="VT0(14):26"/>
				<v:ud v:nameU="msvThemeColors" v:val="VT0(36):26"/>
				<v:ud v:nameU="msvThemeEffects" v:val="VT0(16):26"/>
			</v:userDefs>
			<g id="shadow19-83" v:groupContext="shadow" v:shadowOffsetX="1.44" v:shadowOffsetY="-1.44" v:shadowType="1"
					transform="matrix(1,0,0,1,1.44,1.44)" class="st1">
				<path d="M0 836.22 L5.67 830.55 L5.67 834.29 L396.45 834.29 L396.45 830.55 L402.12 836.22 L396.45 841.89 L396.45
							 838.15 L5.67 838.15 L5.67 841.89 L0 836.22 Z" class="st2"/>
			</g>
			<path d="M0 836.22 L5.67 830.55 L5.67 834.29 L396.45 834.29 L396.45 830.55 L402.12 836.22 L396.45 841.89 L396.45 838.15
						 L5.67 838.15 L5.67 841.89 L0 836.22 Z" class="st8"/>
		</g>
		<g id="shape20-87" v:mID="20" v:groupContext="shape" transform="translate(99.2126,-507.906)">
			<title>Sheet.20</title>
			<desc>api method</desc>
			<v:userDefs>
				<v:ud v:nameU="msvThemeColors" v:val="VT0(36):26"/>
				<v:ud v:nameU="msvThemeEffects" v:val="VT0(16):26"/>
			</v:userDefs>
			<v:textBlock v:margins="rect(4,4,4,4)" v:tabSpace="42.5197"/>
			<v:textRect cx="67.3228" cy="833.89" width="134.65" height="16"/>
			<rect x="0" y="825.89" width="134.646" height="16" class="st6"/>
			<text x="4" y="837.49" class="st9" v:langID="1033"><v:paragraph/><v:tabList/>api method</text>		</g>
		<g id="shape21-90" v:mID="21" v:groupContext="shape" transform="translate(311.811,-479.559)">
			<title>Sheet.21</title>
			<desc>data</desc>
			<v:userDefs>
				<v:ud v:nameU="msvThemeColors" v:val="VT0(36):26"/>
				<v:ud v:nameU="msvThemeEffects" v:val="VT0(16):26"/>
			</v:userDefs>
			<v:textBlock v:margins="rect(4,4,4,4)" v:tabSpace="42.5197"/>
			<v:textRect cx="85.0394" cy="833.89" width="170.08" height="16"/>
			<rect x="0" y="825.89" width="170.079" height="16" class="st6"/>
			<text x="144.26" y="837.49" class="st9" v:langID="1033"><v:paragraph v:horizAlign="2"/><v:tabList/>data</text>		</g>
		<g id="shape22-93" v:mID="22" v:groupContext="shape" transform="translate(290.551,-446.457) scale(-1,1)">
			<title>45 degree single.22</title>
			<v:userDefs>
				<v:ud v:nameU="visVersion" v:val="VT0(14):26"/>
				<v:ud v:nameU="msvThemeColors" v:val="VT0(36):26"/>
				<v:ud v:nameU="msvThemeEffects" v:val="VT0(16):26"/>
			</v:userDefs>
			<g id="shadow22-94" v:groupContext="shadow" v:shadowOffsetX="1.44" v:shadowOffsetY="-1.44" v:shadowType="1"
					transform="matrix(1,0,0,1,-1.44,1.44)" class="st1">
				<path d="M0 834.8 L7.09 827.72 L7.09 832.39 L204.09 832.39 L204.09 837.21 L7.09 837.21 L7.09 841.89 L0 834.8 Z"
						class="st2"/>
			</g>
			<path d="M0 834.8 L7.09 827.72 L7.09 832.39 L204.09 832.39 L204.09 837.21 L7.09 837.21 L7.09 841.89 L0 834.8 Z"
					class="st3"/>
		</g>
		<g id="shape23-98" v:mID="23" v:groupContext="shape" transform="translate(92.126,-460.63)">
			<title>Sheet.23</title>
			<desc>Locaction /protected</desc>
			<v:userDefs>
				<v:ud v:nameU="msvThemeColors" v:val="VT0(36):26"/>
				<v:ud v:nameU="msvThemeEffects" v:val="VT0(16):26"/>
			</v:userDefs>
			<v:textBlock v:margins="rect(4,4,4,4)" v:tabSpace="42.5197"/>
			<v:textRect cx="67.3228" cy="833.89" width="134.65" height="16"/>
			<rect x="0" y="825.89" width="134.646" height="16" class="st6"/>
			<text x="4" y="837.49" class="st7" v:langID="1033"><v:paragraph/><v:tabList/>Locaction /protected</text>		</g>
		<g id="shape24-101" v:mID="24" v:groupContext="shape" transform="translate(171.156,-406.362)">
			<title>Sheet.24</title>
			<desc>GET /protected</desc>
			<v:userDefs>
				<v:ud v:nameU="msvThemeColors" v:val="VT0(36):26"/>
				<v:ud v:nameU="msvThemeEffects" v:val="VT0(16):26"/>
			</v:userDefs>
			<v:textBlock v:margins="rect(4,4,4,4)" v:tabSpace="42.5197"/>
			<v:textRect cx="52" cy="833.89" width="104" height="16"/>
			<rect x="0" y="825.89" width="104" height="16" class="st6"/>
			<text x="25.2" y="837.49" class="st7" v:langID="1033"><v:paragraph v:horizAlign="2"/><v:tabList/>GET /protected</text>		</g>
		<g id="shape25-104" v:mID="25" v:groupContext="shape" transform="translate(96.4787,-372.346)">
			<title>Sheet.25</title>
			<desc>data</desc>
			<v:userDefs>
				<v:ud v:nameU="msvThemeColors" v:val="VT0(36):26"/>
				<v:ud v:nameU="msvThemeEffects" v:val="VT0(16):26"/>
			</v:userDefs>
			<v:textBlock v:margins="rect(4,4,4,4)" v:tabSpace="42.5197"/>
			<v:textRect cx="89.7795" cy="833.89" width="179.56" height="16"/>
			<rect x="0" y="825.89" width="179.559" height="16" class="st6"/>
			<text x="4" y="837.49" class="st7" v:langID="1033"><v:paragraph/><v:tabList/>data</text>		</g>
		<g id="shape26-107" v:mID="26" v:groupContext="shape" transform="translate(81.5244,-391.685)">
			<title>45 degree double.26</title>
			<v:userDefs>
				<v:ud v:nameU="visVersion" v:val="VT0(14):26"/>
				<v:ud v:nameU="msvThemeColors" v:val="VT0(36):26"/>
				<v:ud v:nameU="msvThemeEffects" v:val="VT0(16):26"/>
			</v:userDefs>
			<g id="shadow26-108" v:groupContext="shadow" v:shadowOffsetX="1.44" v:shadowOffsetY="-1.44" v:shadowType="1"
					transform="matrix(1,0,0,1,1.44,1.44)" class="st1">
				<path d="M0 836.22 L5.67 830.55 L5.67 834.29 L204.77 834.29 L204.77 830.55 L210.44 836.22 L204.77 841.89 L204.77
							 838.15 L5.67 838.15 L5.67 841.89 L0 836.22 Z" class="st2"/>
			</g>
			<path d="M0 836.22 L5.67 830.55 L5.67 834.29 L204.77 834.29 L204.77 830.55 L210.44 836.22 L204.77 841.89 L204.77 838.15
						 L5.67 838.15 L5.67 841.89 L0 836.22 Z" class="st3"/>
		</g>
	</g>
</svg>
